<svg width="24" height="25" viewBox="0 0 24 25" fill="none" xmlns="http://www.w3.org/2000/svg">
<path d="M12 5.79211C7 5.79211 2.73 8.90211 1 13.2921C2.73 17.6821 7 20.7921 12 20.7921C17 20.7921 21.27 17.6821 23 13.2921C21.27 8.90211 17 5.79211 12 5.79211ZM12 18.2921C9.24 18.2921 7 16.0521 7 13.2921C7 10.5321 9.24 8.29211 12 8.29211C14.76 8.29211 17 10.5321 17 13.2921C17 16.0521 14.76 18.2921 12 18.2921ZM12 10.2921C10.34 10.2921 9 11.6321 9 13.2921C9 14.9521 10.34 16.2921 12 16.2921C13.66 16.2921 15 14.9521 15 13.2921C15 11.6321 13.66 10.2921 12 10.2921Z" fill="black"/>
</svg>
