{
  "accessors": [
    {
      "bufferView": 1,
      "componentType": 5126,
      "count": 8322,
      "max": [
        1.806318998336792,
        3.1594700813293457,
        5.7391757965087891
      ],
      "min": [
        -0.98467499017715454,
        -3.8269369602203369,
        -0.53366398811340332
      ],
      "type": "VEC3"
    },
    {
      "bufferView": 1,
      "byteOffset": 99864,
      "componentType": 5126,
      "count": 8322,
      "max": [
        0.99999397993087769,
        0.99993473291397095,
        0.99977689981460571
      ],
      "min": [
        -0.99999898672103882,
        -0.99950212240219116,
        -0.99999785423278809
      ],
      "type": "VEC3"
    },
    {
      "bufferView": 2,
      "componentType": 5126,
      "count": 8322,
      "max": [
        0.99998933076858521,
        0.99952220916748047,
        0.99984556436538696,
        1
      ],
      "min": [
        -0.99981504678726196,
        -0.99928122758865356,
        -0.99989777803421021,
        -1
      ],
      "type": "VEC4"
    },
    {
      "bufferView": 0,
      "componentType": 5125,
      "count": 46152,
      "max": [
        8321
      ],
      "min": [
        0
      ],
      "type": "SCALAR"
    }
  ],
  "asset": {
    "extras": {
      "author": "Xiao Yang (https://sketchfab.com/xyang)",
      "license": "CC-BY-4.0 (http://creativecommons.org/licenses/by/4.0/)",
      "source": "https://sketchfab.com/models/75df21d5523b4474932cda4f40e968cd",
      "title": "Fox Sit"
    },
    "generator": "Sketchfab-3.18.6",
    "version": "2.0"
  },
  "bufferViews": [
    {
      "buffer": 0,
      "byteLength": 184608,
      "byteOffset": 0,
      "name": "floatBufferViews",
      "target": 34963
    },
    {
      "buffer": 0,
      "byteLength": 199728,
      "byteOffset": 184608,
      "byteStride": 12,
      "name": "floatBufferViews",
      "target": 34962
    },
    {
      "buffer": 0,
      "byteLength": 133152,
      "byteOffset": 384336,
      "byteStride": 16,
      "name": "floatBufferViews",
      "target": 34962
    }
  ],
  "buffers": [
    {
      "byteLength": 517488,
      "uri": "scene.bin"
    }
  ],
  "materials": [
    {
      "doubleSided": true,
      "emissiveFactor": [
        0,
        0,
        0
      ],
      "name": "lambert2SG",
      "pbrMetallicRoughness": {
        "baseColorFactor": [
          1,
          1,
          1,
          1
        ],
        "metallicFactor": 0,
        "roughnessFactor": 0.59999999999999998
      }
    }
  ],
  "meshes": [
    {
      "primitives": [
        {
          "attributes": {
            "NORMAL": 1,
            "POSITION": 0,
            "TANGENT": 2
          },
          "indices": 3,
          "material": 0,
          "mode": 4
        }
      ]
    }
  ],
  "nodes": [
    {
      "children": [
        1
      ],
      "name": "RootNode (gltf orientation matrix)",
      "rotation": [
        -0.70710678118654746,
        -0,
        -0,
        0.70710678118654757
      ]
    },
    {
      "children": [
        2
      ],
      "name": "RootNode (model correction matrix)"
    },
    {
      "children": [
        3
      ],
      "name": "FoxSit.obj.cleaner.gles"
    },
    {
      "mesh": 0,
      "name": ""
    }
  ],
  "scene": 0,
  "scenes": [
    {
      "name": "OSG_Scene",
      "nodes": [
        0
      ]
    }
  ]
}

